<?xml version="1.0" standalone="no"?>
<!DOCTYPE svg PUBLIC "-//W3C//DTD SVG 20010904//EN"
 "http://www.w3.org/TR/2001/REC-SVG-20010904/DTD/svg10.dtd">
<svg version="1.0" xmlns="http://www.w3.org/2000/svg"
 width="1182.000000pt" height="1182.000000pt" viewBox="0 0 1182.000000 1182.000000"
 preserveAspectRatio="xMidYMid meet">

<g transform="translate(0.000000,1182.000000) scale(0.100000,-0.100000)"
fill="#000000" stroke="none">
<path d="M9720 9970 c-121 -16 -224 -66 -320 -157 -157 -148 -217 -384 -149
-588 102 -304 429 -466 730 -361 177 61 310 205 365 391 25 85 23 230 -5 315
-85 266 -349 437 -621 400z"/>
<path d="M8226 8140 c-146 -23 -295 -81 -413 -161 -79 -53 -214 -198 -267
-287 -54 -91 -110 -243 -126 -344 -6 -37 -9 -141 -8 -230 1 -129 -2 -177 -16
-228 -71 -260 -286 -457 -565 -516 -79 -17 -87 -17 -185 0 -196 34 -375 37
-1791 33 -1478 -4 -1454 -3 -1740 -53 -510 -88 -841 -264 -1116 -592 -227
-271 -385 -585 -473 -942 -46 -186 -65 -325 -75 -528 -36 -775 176 -1395 644
-1881 256 -266 494 -387 976 -495 266 -60 241 -59 1729 -63 1384 -5 1656 0
1908 32 257 33 488 96 634 172 218 114 434 309 616 555 231 313 370 663 439
1108 25 165 25 644 0 815 -42 282 -107 497 -220 735 -62 132 -78 189 -84 310
-7 125 15 231 71 345 88 177 236 298 456 370 164 54 272 117 389 229 178 172
276 388 288 636 22 449 -282 854 -717 960 -98 24 -269 33 -354 20z m-1981
-2710 c380 -35 624 -137 817 -339 211 -220 307 -516 308 -943 0 -448 -105
-763 -329 -989 -169 -169 -385 -270 -673 -316 -104 -17 -215 -18 -1443 -18
l-1330 0 -127 23 c-609 110 -928 492 -967 1157 -41 694 197 1156 688 1336 103
37 288 77 415 88 137 12 2509 13 2641 1z"/>
</g>
</svg>
