<svg id="svg" version="1.1" xmlns="http://www.w3.org/2000/svg" xmlns:xlink="http://www.w3.org/1999/xlink" width="400" height="400" viewBox="0, 0, 400,400"><g id="svgg"><path id="path0" d="M326.781 62.804 C 312.176 66.339,306.975 84.941,317.616 95.582 C 329.506 107.472,349.935 99.677,350.828 82.910 C 351.533 69.666,339.612 59.698,326.781 62.804 M275.978 124.738 C 259.842 128.329,249.809 142.079,250.664 159.433 C 251.413 174.643,238.308 186.524,223.689 183.889 C 219.128 183.067,119.567 182.883,113.029 183.684 C 87.070 186.866,74.185 194.039,62.134 212.015 C 44.342 238.556,44.223 281.255,61.869 307.614 C 73.802 325.438,87.627 333.482,112.014 336.789 C 117.716 337.562,218.988 337.409,225.381 336.617 C 247.056 333.933,258.816 327.036,270.792 309.983 C 287.433 286.288,290.046 247.790,276.811 221.317 C 269.676 207.047,275.950 192.758,291.815 187.145 C 309.991 180.715,318.899 163.732,313.298 146.193 C 308.413 130.896,291.640 121.253,275.978 124.738 M216.920 217.031 C 238.165 221.277,248.197 233.600,249.277 256.776 C 250.545 283.999,238.124 300.625,214.190 303.739 C 207.770 304.574,121.646 304.304,117.090 303.434 C 96.196 299.447,85.542 285.901,84.711 262.267 C 83.764 235.320,95.353 220.071,119.289 216.770 C 124.870 216.000,212.942 216.236,216.920 217.031 " stroke="none" fill="#e4042c" fill-rule="evenodd"></path><path id="path1" d="" stroke="none" fill="#e8042c" fill-rule="evenodd"></path><path id="path2" d="" stroke="none" fill="#e8042c" fill-rule="evenodd"></path><path id="path3" d="" stroke="none" fill="#e8042c" fill-rule="evenodd"></path><path id="path4" d="" stroke="none" fill="#e8042c" fill-rule="evenodd"></path></g></svg>